<!--
Capital = absolute
lowerCase = relative
M = MoveTo
L = LineTo
H = HorizontalLineTo
V = VerticalLineTo
C = CurveTo
S = SmoothCurveTo
Q = QuadraticBezierCurve
T = SmoothQuadraticBezierCurve
A = EllipticArc
Z = ColsePath
-->
<svg version="1.1" xmlns="http://www.w3.org/2000/svg" width="200" height="300">

    <defs>
        <style type="text/css"><![CDATA[
      rect {
        fill: blue;
      }
      circle {
        fill: rgb(215,215,215);
      }
      text {
        font-size:16;
        font-family: sans-serif;
        text-anchor:middle;
        alignment-baseline:central; 
        fill:black;
      }
    ]]></style>
    </defs>

    <!-- TTBBED -->
    <circle r="10" cx="10" cy="70"></circle>
    <text x="10" y="70">T</text>
    <!--circle r="10" cx="30" cy="70"></circle>
    <text x="30" y="70">T</text>
    <circle r="10" cx="50" cy="70"></circle>
    <text x="50" y="70">B</text>
    <circle r="10" cx="70" cy="70"></circle>
    <text x="70" y="70">B</text>
    <circle r="10" cx="90" cy="70"></circle>
    <text x="90" y="70">E</text-->
    <circle r="10" cx="10" cy="70">
        <animateMotion dur="1s" values="0,0; 22,0; 20,0" />
    </circle>
    <text x="110" y="70">D</text>

    <!-- TEND -->
    <!--rect height="80" width="20" x="0" y="0" rx="10" ry="10"/
    <circle r="10" cx="10" cy="50"></circle>
    <text x="10" y="50">E</text>
    <circle r="10" cx="10" cy="30"></circle>
    <text x="10" y="30">N</text>
    <circle r="10" cx="10" cy="10"></circle>
    <text x="10" y="10">D</text>

    <! TO -->
    <!--rect height="40" width="20" x="20" y="60" rx="10" ry="10"/
    <circle r="10" cx="30" cy="90"></circle>
    <text x="30" y="90">O</text>

    <! BE -->
    <!--rect height="40" width="20" x="40" y="40" rx="10" ry="10"/
    <circle r="10" cx="50" cy="50"></circle>
    <text x="50" y="50">E</text>

    <! BETTER -->
    <!--rect height="120" width="20" x="60" y="60" rx="10" ry="10"/
    <circle r="10" cx="70" cy="90"></circle>
    <text x="70" y="90">E</text>
    <circle r="10" cx="70" cy="110"></circle>
    <text x="70" y="110">T</text>
    <circle r="10" cx="82" cy="138"></circle>
    <text x="82" y="138">T</text>
    <circle r="10" cx="110" cy="150"></circle>
    <text x="110" y="150">E</text>
    <circle r="10" cx="138" cy="138"></circle>
    <text x="138" y="138">R</text>

    <! EVERY -->
    <!--rect height="100" width="20" x="80" y="-20" rx="10" ry="10"/
    <circle r="10" cx="90" cy="50"></circle>
    <text x="90" y="50">V</text>
    <circle r="10" cx="102" cy="24"></circle>
    <text x="102" y="24">E</text>
    <circle r="10" cx="135" cy="33"></circle>
    <text x="135" y="33">R</text>
    <circle r="10" cx="130" cy="58"></circle>
    <text x="130" y="58">Y</text>

    <! DAY -->
    <!--rect height="60" width="20" x="100" y="60" rx="10" ry="10"/
    <circle r="10" cx="138" cy="82"></circle>
    <text x="138" y="82">A</text>
    <circle r="10" cx="150" cy="110"></circle>
    <text x="150" y="110">Y</text>

    -->
</svg>
